# xmcd CD database file
# Copyright (C) 1997 Ti Kan
#
# Track frame offsets:
#  150
#  11745
#  27215
#  39365
#  54892
#  65380
#  83037
#  99630
#  111017
#  122277
#  136340
#  148037
#  164842
#  178242
#  187590
#  197522
#  210142
#  220667
#  233912
#  243390
#  253770
#  268977
#  284212
#  294875
#
# Disc length: 4079 seconds
#
# Revision: 1
# Processed by: cddbd v1.4b41PL1 Copyright (c) Steve Scherf et al.
# Submitted via: CDWizzard Release:4.32
#
DISCID=570fed18
DTITLE=Ramblin' Jack Elliot - Sings Woody Guthrie, Jimmie Rodgers and Cow
DTITLE=boy Songs
DYEAR=1900
DGENRE=
TTITLE0=Do-Re-Me
TTITLE1=Dead or Alive
TTITLE2=Grand Coulie Dam
TTITLE3=Dust Storm
TTITLE4=I Ain't Got No Home
TTITLE5=So Long, Its Been Good To Know You
TTITLE6=TS for Texas
TTITLE7=Waitin' for a Train
TTITLE8=Jimmie the Kid
TTITLE9=Mother the Queen of My Heart
TTITLE10=In the Jailhouse Now
TTITLE11=Whippin' that Old TB
TTITLE12=Rusty Jiggs and Sandy Sam
TTITLE13=Git Along Little Doggies
TTITLE14=Sadie Brown
TTITLE15=Night Herding Song
TTITLE16=Chisholm Trail
TTITLE17=Fifteen Cents
TTITLE18=Rocky Mountain Belle
TTITLE19=Talking Blues
TTITLE20=Diamond Joe
TTITLE21=In The Willow Garden
TTITLE22=I Ride An Old Paint
TTITLE23=Jack O'Diamonds
EXTD=
EXTT0=
EXTT1=
EXTT2=
EXTT3=
EXTT4=
EXTT5=
EXTT6=
EXTT7=
EXTT8=
EXTT9=
EXTT10=
EXTT11=
EXTT12=
EXTT13=
EXTT14=
EXTT15=
EXTT16=
EXTT17=
EXTT18=
EXTT19=
EXTT20=
EXTT21=
EXTT22=
EXTT23=
PLAYORDER=
